<svg version="1.1" id="Layer_1" xmlns="http://www.w3.org/2000/svg" xmlns:xlink="http://www.w3.org/1999/xlink" x="0px" y="0px"
	 width="100%" viewBox="0 0 512 512" enable-background="new 0 0 512 512" xml:space="preserve">
<path fill="#000000" opacity="1.000000" stroke="none" 
	d="
M1.000000,186.000000 
	C1.000000,124.000000 1.000000,62.500000 1.000000,1.000000 
	C171.666672,1.000000 342.333344,1.000000 513.000000,1.000000 
	C513.000000,171.666672 513.000000,342.333344 513.000000,513.000000 
	C342.333344,513.000000 171.666672,513.000000 1.000000,513.000000 
	C1.000000,404.166656 1.000000,295.333344 1.000000,186.000000 
M457.000397,274.500000 
	C457.000397,216.343445 457.021179,158.186874 456.957458,100.030388 
	C456.952789,95.786041 456.398956,91.536308 455.992523,87.299438 
	C454.416046,70.865532 441.442291,60.031673 424.495178,60.024380 
	C312.847198,59.976326 201.199188,59.985657 89.551270,60.063374 
	C86.019188,60.065834 82.356285,60.575718 78.979111,61.594242 
	C65.350044,65.704636 57.068180,77.640541 57.054451,92.485863 
	C56.953037,202.134079 56.985519,311.782440 57.062870,421.430725 
	C57.065361,424.964569 57.566826,428.628693 58.581112,432.008392 
	C62.797745,446.058685 74.857262,453.841492 88.960495,453.870880 
	C200.608002,454.103638 312.256226,454.030823 423.904114,453.940430 
	C432.502228,453.933441 440.515381,451.269379 447.019501,445.415283 
	C454.209381,438.943970 456.901794,430.274200 456.930511,420.975433 
	C457.080292,372.484009 457.000397,323.991882 457.000397,274.500000 
z"/>
<path fill="#FFFFFF" opacity="1.000000" stroke="none" 
	d="
M457.000397,275.000000 
	C457.000397,323.991882 457.080292,372.484009 456.930511,420.975433 
	C456.901794,430.274200 454.209381,438.943970 447.019501,445.415283 
	C440.515381,451.269379 432.502228,453.933441 423.904114,453.940430 
	C312.256226,454.030823 200.608002,454.103638 88.960495,453.870880 
	C74.857262,453.841492 62.797745,446.058685 58.581112,432.008392 
	C57.566826,428.628693 57.065361,424.964569 57.062870,421.430725 
	C56.985519,311.782440 56.953037,202.134079 57.054451,92.485863 
	C57.068180,77.640541 65.350044,65.704636 78.979111,61.594242 
	C82.356285,60.575718 86.019188,60.065834 89.551270,60.063374 
	C201.199188,59.985657 312.847198,59.976326 424.495178,60.024380 
	C441.442291,60.031673 454.416046,70.865532 455.992523,87.299438 
	C456.398956,91.536308 456.952789,95.786041 456.957458,100.030388 
	C457.021179,158.186874 457.000397,216.343445 457.000397,275.000000 
M443.000000,79.124031 
	C442.883179,77.537918 442.766388,75.951813 442.622650,73.999992 
	C439.962006,73.999992 437.820679,74.000000 435.679321,74.000000 
	C317.679657,73.999901 199.680008,73.999786 81.680344,73.999748 
	C79.513687,73.999748 77.331406,74.165787 75.183975,73.962791 
	C71.841026,73.646790 70.909210,75.078018 70.942360,78.286324 
	C71.080940,91.698051 70.999542,105.112038 71.000404,118.525200 
	C71.000732,123.604393 71.196587,128.692383 70.963615,133.760742 
	C70.610573,141.441223 72.005943,142.997238 80.027245,142.999191 
	C92.635155,143.002243 105.244408,143.109802 117.850449,142.956192 
	C124.716064,142.872543 131.576569,142.076111 138.438766,142.084915 
	C145.807266,142.094360 153.175079,142.670258 160.543121,143.000183 
	C167.585892,143.315536 174.626572,143.800812 181.672073,143.885178 
	C185.865234,143.935410 190.237701,143.988373 194.221237,142.905701 
	C199.616852,141.439255 204.271454,142.622940 209.115494,144.600159 
	C210.571320,145.194412 212.399658,144.926529 214.059113,144.956543 
	C215.582504,144.984100 217.108231,144.880951 218.632950,144.835403 
	C218.412079,146.397675 218.684006,148.333664 217.851166,149.431808 
	C216.694489,150.956909 214.659912,151.791534 213.091476,153.035614 
	C211.372360,154.399231 208.816071,155.611771 208.286407,157.386200 
	C207.107925,161.334106 206.304428,164.970535 201.649582,166.365051 
	C200.562698,166.690659 199.986588,168.682312 199.150253,169.889938 
	C195.201996,175.591110 193.434738,183.132736 185.504822,185.506241 
	C184.384476,185.841568 183.191040,188.036880 183.133743,189.417038 
	C182.974915,193.243713 181.470978,195.367844 177.769974,196.773560 
	C173.100342,198.547241 172.746704,201.658920 176.618576,205.007050 
	C178.766296,206.864258 181.424088,208.131653 183.903946,209.697693 
	C180.493561,213.386475 168.169724,215.095139 164.794769,212.586411 
	C164.542358,212.398788 164.431778,212.009033 164.172104,211.844330 
	C162.273834,210.640320 160.354279,209.469849 158.116165,208.087952 
	C156.142654,215.217712 154.338242,216.241272 148.143784,215.226974 
	C144.158905,214.574478 140.136414,213.633774 136.141083,213.681610 
	C129.759521,213.758011 123.387337,214.560196 117.009392,215.031174 
	C115.189980,215.165527 113.365273,215.254410 111.541412,215.297806 
	C102.802391,215.505676 94.063339,215.721176 85.323227,215.871078 
	C80.994774,215.945312 76.663986,215.883972 71.449493,215.883972 
	C73.772911,223.010117 67.726242,231.260422 77.616249,234.894150 
	C77.893417,234.995987 77.763687,236.034103 78.079033,236.235138 
	C79.042175,236.849197 80.130203,237.267349 81.169632,237.761734 
	C81.604317,236.835831 82.260910,235.944901 82.413872,234.974579 
	C82.580681,233.916428 82.280716,232.784698 82.178032,231.614426 
	C84.308884,231.123810 86.111519,230.708771 88.369965,230.188782 
	C86.171394,226.499207 84.226982,222.558075 89.149536,221.246536 
	C92.132187,220.451843 95.811401,222.207443 99.126053,223.026276 
	C99.227394,223.051300 99.182396,225.795609 98.458199,226.595322 
	C96.923950,228.289627 95.019424,229.744690 93.042549,230.921097 
	C89.507828,233.024521 87.797165,235.458710 91.200592,239.631165 
	C86.045784,240.578201 81.669090,241.712646 77.061104,239.465057 
	C76.195076,239.042633 73.536079,240.243896 73.130959,241.262985 
	C70.567017,247.712631 71.220802,254.084915 74.573555,260.363800 
	C70.396263,266.033661 72.175240,272.557281 72.448006,278.947723 
	C72.645149,283.566559 72.812210,288.217590 72.496384,292.820190 
	C72.020782,299.751221 70.412224,306.798187 77.231445,312.662292 
	C70.504799,313.642273 72.037376,318.461090 72.009529,322.540466 
	C71.971390,328.128510 72.128380,333.720795 71.961617,339.304077 
	C71.813423,344.266022 70.168404,349.494324 71.259331,354.115082 
	C73.298515,362.752258 71.511612,371.239777 71.944473,379.768280 
	C72.148407,383.786133 72.501724,387.338226 78.110733,387.612701 
	C76.112206,389.329742 74.329254,390.375397 73.412949,391.931366 
	C73.120445,392.428040 75.126808,394.278473 76.033752,395.448151 
	C71.668907,397.092285 70.480896,399.660431 71.418175,404.913483 
	C72.218552,409.399261 73.191307,413.963928 73.091202,418.471527 
	C72.979149,423.517334 71.383530,428.517334 71.090782,433.575287 
	C70.720215,439.978149 71.006042,439.999268 77.535828,439.999329 
	C197.202148,440.000244 316.868469,439.999969 436.534790,439.999786 
	C437.534790,439.999786 438.541138,439.922943 439.533539,440.008942 
	C442.137726,440.234589 443.118866,439.062775 443.026917,436.498810 
	C442.901550,433.003387 442.998413,429.499969 443.594025,425.411987 
	C443.729370,424.101501 443.982697,422.791046 443.983063,421.480530 
	C444.002319,354.510376 444.004669,287.540222 443.992157,220.570068 
	C443.990997,214.389587 442.580475,213.048767 436.310333,213.001678 
	C434.811066,212.990433 433.185516,213.378479 431.836121,212.928650 
	C427.870178,211.606537 423.691010,210.470352 420.207336,208.285522 
	C416.861359,206.187042 417.451935,203.102921 420.977814,201.018661 
	C424.514893,198.927734 428.008789,196.706375 431.731934,195.001495 
	C436.799194,192.681168 431.303558,190.412354 431.794342,188.067276 
	C431.943451,187.354843 429.949921,185.468338 428.807373,185.346970 
	C425.349152,184.979614 421.827057,185.214172 417.336700,185.214172 
	C418.290955,183.060837 419.148773,181.422745 419.756561,179.696640 
	C421.430084,174.943619 423.450714,170.240524 424.392639,165.336868 
	C424.784210,163.298447 424.172150,160.766449 426.782623,161.291214 
	C428.605621,161.657700 430.704376,163.926788 431.419678,165.821762 
	C432.752350,169.352463 433.166565,173.229828 434.059418,177.414566 
	C442.653595,170.856781 441.857635,160.990417 432.931702,153.955017 
	C431.813568,155.926117 430.723938,157.847000 429.601715,159.825302 
	C423.690186,158.575851 418.882904,156.130295 415.951050,150.854462 
	C415.587524,150.200302 415.100677,149.131653 415.373474,148.714264 
	C415.843506,147.995163 416.839203,147.253189 417.661316,147.195938 
	C420.729187,146.982315 423.820831,146.923019 426.894379,147.042191 
	C428.993835,147.123596 431.127106,147.410339 433.157013,147.942154 
	C435.871185,148.653244 438.499847,149.690536 441.474487,150.691833 
	C441.733459,147.295715 441.695068,145.378693 442.065948,143.544418 
	C442.537048,141.214508 443.890961,138.956818 443.912292,136.659164 
	C444.073090,119.335037 444.025574,102.008652 443.956512,84.683311 
	C443.950287,83.120964 443.333344,81.561043 443.000000,79.124031 
M170.430847,193.009216 
	C167.767441,193.009216 165.104034,193.009216 161.546539,193.009216 
	C162.500412,196.560608 163.210144,199.203018 164.288300,203.217148 
	C167.382370,199.385757 169.552338,196.708557 171.681915,193.999573 
	C171.730774,193.937408 171.323227,193.516449 170.430847,193.009216 
M200.549728,148.020935 
	C195.956329,148.596115 195.927399,152.127167 195.915787,156.027542 
	C198.351395,155.278229 200.592392,154.177750 202.043427,152.423737 
	C202.659027,151.679626 201.617294,149.564453 200.549728,148.020935 
z"/>
<path fill="#FCFDFC" opacity="1.000000" stroke="none" 
	d="
M443.000000,426.000000 
	C442.998413,429.499969 442.901550,433.003387 443.026917,436.498810 
	C443.118866,439.062775 442.137726,440.234589 439.533539,440.008942 
	C438.541138,439.922943 437.534790,439.999786 436.534790,439.999786 
	C316.868469,439.999969 197.202148,440.000244 77.535828,439.999329 
	C71.006042,439.999268 70.720215,439.978149 71.090782,433.575287 
	C71.383530,428.517334 72.979149,423.517334 73.091202,418.471527 
	C73.191307,413.963928 72.218552,409.399261 71.418175,404.913483 
	C70.480896,399.660431 71.668907,397.092285 76.033752,395.448151 
	C75.126808,394.278473 73.120445,392.428040 73.412949,391.931366 
	C74.329254,390.375397 76.112206,389.329742 78.110733,387.612701 
	C72.501724,387.338226 72.148407,383.786133 71.944473,379.768280 
	C71.511612,371.239777 73.298515,362.752258 71.259331,354.115082 
	C70.168404,349.494324 71.813423,344.266022 71.961617,339.304077 
	C72.128380,333.720795 71.971390,328.128510 72.009529,322.540466 
	C72.037376,318.461090 70.504799,313.642273 77.231445,312.662292 
	C70.412224,306.798187 72.020782,299.751221 72.496384,292.820190 
	C72.812210,288.217590 72.645149,283.566559 72.448006,278.947723 
	C72.175240,272.557281 70.396263,266.033661 74.573555,260.363800 
	C71.220802,254.084915 70.567017,247.712631 73.130959,241.262985 
	C73.536079,240.243896 76.195076,239.042633 77.061104,239.465057 
	C81.669090,241.712646 86.045784,240.578201 91.200592,239.631165 
	C87.797165,235.458710 89.507828,233.024521 93.042549,230.921097 
	C95.019424,229.744690 96.923950,228.289627 98.458199,226.595322 
	C99.182396,225.795609 99.227394,223.051300 99.126053,223.026276 
	C95.811401,222.207443 92.132187,220.451843 89.149536,221.246536 
	C84.226982,222.558075 86.171394,226.499207 88.369965,230.188782 
	C86.111519,230.708771 84.308884,231.123810 82.178032,231.614426 
	C82.280716,232.784698 82.580681,233.916428 82.413872,234.974579 
	C82.260910,235.944901 81.604317,236.835831 81.169632,237.761719 
	C80.130203,237.267349 79.042175,236.849197 78.079033,236.235138 
	C77.763687,236.034103 77.893417,234.995987 77.616249,234.894150 
	C67.726242,231.260422 73.772911,223.010117 71.449493,215.883972 
	C76.663986,215.883972 80.994774,215.945312 85.323227,215.871078 
	C94.063339,215.721176 102.802391,215.505676 111.541412,215.297806 
	C113.365273,215.254410 115.189980,215.165527 117.009392,215.031174 
	C123.387337,214.560196 129.759521,213.758011 136.141083,213.681610 
	C140.136414,213.633774 144.158905,214.574478 148.143784,215.226974 
	C154.338242,216.241272 156.142654,215.217712 158.116165,208.087952 
	C160.354279,209.469849 162.273834,210.640320 164.172104,211.844330 
	C164.431778,212.009033 164.542358,212.398788 164.794769,212.586411 
	C168.169724,215.095139 180.493561,213.386475 183.903946,209.697693 
	C181.424088,208.131653 178.766296,206.864258 176.618576,205.007050 
	C172.746704,201.658920 173.100342,198.547241 177.769974,196.773560 
	C181.470978,195.367844 182.974915,193.243713 183.133743,189.417038 
	C183.191040,188.036880 184.384476,185.841568 185.504822,185.506241 
	C193.434738,183.132736 195.201996,175.591110 199.150253,169.889938 
	C199.986588,168.682312 200.562698,166.690659 201.649582,166.365051 
	C206.304428,164.970535 207.107925,161.334106 208.286407,157.386200 
	C208.816071,155.611771 211.372360,154.399231 213.091476,153.035614 
	C214.659912,151.791534 216.694489,150.956909 217.851166,149.431808 
	C218.684006,148.333664 218.412079,146.397675 218.632935,144.835403 
	C217.108231,144.880951 215.582504,144.984100 214.059113,144.956543 
	C212.399658,144.926529 210.571320,145.194412 209.115494,144.600159 
	C204.271454,142.622940 199.616852,141.439255 194.221237,142.905701 
	C190.237701,143.988373 185.865234,143.935410 181.672073,143.885178 
	C174.626572,143.800812 167.585892,143.315536 160.543121,143.000183 
	C153.175079,142.670258 145.807266,142.094360 138.438766,142.084915 
	C131.576569,142.076111 124.716064,142.872543 117.850449,142.956192 
	C105.244408,143.109802 92.635155,143.002243 80.027245,142.999191 
	C72.005943,142.997238 70.610573,141.441223 70.963615,133.760742 
	C71.196587,128.692383 71.000732,123.604393 71.000404,118.525200 
	C70.999542,105.112038 71.080940,91.698051 70.942360,78.286324 
	C70.909210,75.078018 71.841026,73.646790 75.183975,73.962791 
	C77.331406,74.165787 79.513687,73.999748 81.680344,73.999748 
	C199.680008,73.999786 317.679657,73.999901 435.679321,74.000000 
	C437.820679,74.000000 439.962006,73.999992 442.622650,73.999992 
	C442.766388,75.951813 442.883179,77.537918 442.708008,79.845901 
	C442.277313,82.208595 442.092651,83.847038 442.007965,85.490646 
	C441.653320,92.374023 441.444153,99.267540 440.931976,106.138741 
	C440.746490,108.627403 439.876221,109.959061 436.374969,109.443382 
	C427.023041,108.066025 425.869690,109.453423 427.905151,118.557014 
	C431.878021,116.221863 435.609192,114.028778 439.363098,111.822334 
	C443.729797,119.811447 443.036102,124.870529 438.222626,129.076141 
	C439.443542,132.620316 440.539215,135.800873 441.560089,138.764282 
	C437.641602,140.117661 435.075684,141.647003 432.428223,141.804459 
	C422.171478,142.414490 411.890411,142.657715 401.615204,142.902420 
	C392.639191,143.116196 383.658661,143.134796 374.680664,143.274857 
	C373.229767,143.297485 371.746246,143.765991 370.338959,143.575851 
	C366.165527,143.011978 362.240234,141.801666 357.819183,143.640671 
	C355.413147,144.641495 352.021393,143.454254 349.112427,143.006027 
	C346.849579,142.657333 344.643982,141.436081 342.416077,141.444397 
	C329.530304,141.492447 316.645538,141.796570 303.760193,141.998291 
	C301.328125,142.036377 298.894928,142.003754 297.703186,142.003754 
	C295.709351,145.615982 294.323120,148.127396 292.393677,151.622986 
	C295.017914,152.627335 298.027466,154.303162 301.234924,154.881348 
	C305.812317,155.706512 307.430389,157.316498 306.639801,161.686249 
	C306.206329,164.082169 304.345734,166.780304 308.460938,168.107559 
	C311.942719,169.230530 314.618530,169.577225 315.626434,165.032471 
	C315.800812,164.246155 317.254669,163.743607 318.120636,163.469254 
	C319.515167,167.553223 320.906586,171.277939 321.926697,174.977722 
	C315.023224,171.537018 314.379120,171.742249 311.867065,177.209763 
	C310.511047,180.161194 310.768066,182.535538 313.208160,184.817978 
	C314.078064,185.631699 314.775269,187.029800 314.857849,188.209702 
	C315.094574,191.590561 314.844788,195.003494 315.031036,198.390381 
	C315.257111,202.501389 315.039978,206.077560 310.883240,208.625671 
	C307.302368,210.820755 308.843719,213.716263 311.190704,216.006577 
	C315.912476,220.614395 318.923462,221.358032 321.032379,218.167953 
	C321.978607,216.736572 321.739349,214.346039 321.583191,212.427780 
	C321.491028,211.295670 320.508698,210.236008 319.887451,209.070099 
	C332.816772,204.829086 332.816772,204.829086 335.147034,199.661499 
	C335.529388,197.882004 335.764709,196.441010 336.279510,194.796997 
	C338.175262,193.380890 339.641113,191.819382 341.444916,191.040649 
	C343.831757,190.010162 344.546844,188.914322 343.118134,186.595963 
	C342.548340,185.671448 342.363831,184.509521 342.432495,183.353241 
	C345.440826,183.250824 348.020630,183.250824 351.514221,183.250824 
	C327.329254,214.804047 303.724182,245.600708 280.102417,276.419098 
	C303.928680,300.699585 327.482819,324.702728 351.617889,349.297882 
	C343.309021,349.297882 336.153320,349.483551 329.018311,349.181335 
	C326.957642,349.094086 324.503693,348.087006 323.002319,346.678436 
	C314.142395,338.366272 305.500122,329.821716 296.804321,321.335144 
	C287.201202,311.963074 277.619354,302.569214 267.833496,292.994293 
	C262.862823,299.619629 258.221008,305.806610 254.371658,310.937347 
	C274.287903,331.347076 293.662415,351.278900 313.201599,371.047913 
	C314.478088,372.339417 317.014801,372.919067 318.968842,372.926788 
	C346.460083,373.035309 373.951935,372.989960 401.443634,372.968048 
	C402.838196,372.966949 404.232635,372.840118 406.669464,372.720795 
	C374.672150,339.770172 343.391998,307.558075 311.907928,275.136017 
	C340.317352,237.959366 368.698975,200.819138 397.673615,162.902832 
	C371.622375,162.902832 346.810577,162.902832 322.175842,162.600311 
	C325.510651,161.198532 328.638550,159.287582 331.832306,159.170410 
	C338.308319,158.932846 344.817291,159.762558 351.318481,159.944199 
	C353.429565,160.003189 355.554840,159.197937 357.680389,159.159317 
	C366.254120,159.003510 374.831451,159.050903 383.405609,158.910278 
	C390.346527,158.796432 397.184967,158.810059 401.435669,165.713486 
	C401.995087,166.622040 402.365540,167.646927 402.823547,168.617920 
	C401.700500,169.078339 400.560211,169.501343 399.458374,170.007858 
	C397.760223,170.788498 395.060913,171.245041 394.591797,172.509140 
	C392.971558,176.874817 387.515656,178.954239 387.769867,184.310272 
	C387.787140,184.673645 387.184845,185.074829 386.855469,185.444901 
	C384.513824,188.076126 382.140625,190.679886 379.832062,193.339813 
	C377.772461,195.712875 375.723480,198.100052 373.784119,200.570740 
	C372.542755,202.152176 370.175720,204.533829 370.616455,205.455734 
	C372.375458,209.135239 375.034637,212.384903 377.377808,215.781815 
	C377.436249,215.866531 377.708832,215.863113 377.856445,215.818192 
	C387.027374,213.027863 396.144165,216.778625 405.314606,216.062912 
	C408.542175,215.811035 411.825165,216.333786 415.085022,216.414429 
	C419.775696,216.530472 424.470123,216.520126 429.157593,216.702316 
	C429.654419,216.721619 430.115173,217.667969 431.114807,218.748795 
	C424.118866,218.721451 419.363098,225.762878 412.266693,222.238358 
	C411.693054,221.953461 410.247559,223.746796 409.073578,224.280487 
	C406.638092,225.387711 404.044312,227.250473 401.639435,227.077850 
	C397.410706,226.774307 395.102692,227.518250 395.099243,231.610718 
	C395.094666,237.019455 391.506744,238.115997 387.463379,238.972229 
	C386.163330,239.247513 384.815826,239.298859 383.490051,239.452652 
	C383.465302,239.837906 383.440582,240.223145 383.415863,240.608398 
	C388.512726,242.002060 393.609619,243.395706 397.344604,244.416977 
	C402.936737,242.979004 407.743622,242.174591 412.223114,240.496338 
	C420.206146,237.505478 420.123383,237.284576 424.860901,244.279251 
	C422.996826,246.937454 421.081848,249.668320 419.120941,252.464600 
	C412.557159,246.800446 394.809326,247.139618 391.523438,252.361328 
	C396.189758,254.600601 397.694458,257.910034 394.752899,260.418945 
	C393.191681,261.750549 390.377106,261.552307 388.184540,262.227234 
	C386.917419,262.617310 385.474609,263.121002 384.664642,264.054199 
	C384.181091,264.611298 384.435028,266.765411 384.947754,267.022034 
	C385.884064,267.490601 387.264954,267.142822 388.448029,267.018188 
	C389.124207,266.946960 389.775970,266.644135 390.438721,266.445557 
	C390.559723,266.705017 390.680725,266.964478 390.801727,267.223907 
	C388.793304,268.604187 386.784912,269.984436 384.776520,271.364716 
	C388.245117,272.229462 392.381470,273.297699 393.340240,272.006470 
	C395.319458,269.340912 396.740234,271.078217 398.407410,271.312927 
	C399.874695,271.519440 401.316986,271.903442 402.770325,272.209076 
	C402.798737,270.365356 402.895386,268.519714 402.842285,266.678345 
	C402.704987,261.917175 398.404205,257.382690 401.863037,252.114380 
	C404.014648,253.511047 405.879822,254.721802 407.847504,255.999069 
	C406.964111,257.445953 405.950378,258.622345 405.490387,259.985596 
	C404.948517,261.591461 404.409088,264.741150 404.691437,264.838684 
	C407.008789,265.638916 409.627563,266.528809 411.940582,266.134552 
	C414.809540,265.645477 417.381531,263.590607 420.247162,262.865204 
	C424.719879,261.733032 425.391449,262.701813 424.392914,267.333374 
	C423.483429,271.551788 420.581909,275.659393 423.412384,280.232330 
	C423.454346,280.300140 421.478577,282.246613 420.597137,282.132904 
	C418.351196,281.843170 415.367096,279.618408 414.145081,280.415771 
	C409.626923,283.363892 408.189423,280.779724 406.559448,275.432587 
	C404.447845,279.352570 403.104889,281.837402 401.770203,284.326660 
	C401.006470,285.751068 400.609375,287.891754 399.433350,288.477631 
	C395.953766,290.211060 392.168945,291.331818 388.538391,292.679230 
	C387.841217,294.987823 387.162323,297.235840 386.225464,300.338165 
	C391.078125,299.784515 395.278687,299.305237 399.629089,298.808868 
	C399.629089,296.886566 399.629089,295.346497 399.629089,294.216797 
	C404.128723,293.155914 408.219879,292.191345 411.956970,291.310242 
	C413.644348,288.396240 415.293213,285.548737 416.788910,282.965759 
	C419.680634,285.129303 421.911804,286.601105 423.873749,288.371368 
	C424.580719,289.009277 424.729553,290.342957 424.980988,291.395447 
	C426.133179,296.218506 422.798401,298.813843 420.367371,302.315918 
	C417.886017,305.890594 415.513733,307.442352 411.500031,306.980469 
	C407.809875,306.555817 402.805695,305.085022 408.416443,311.309296 
	C408.726746,311.653534 408.229675,312.629883 408.457031,313.163452 
	C409.008148,314.456909 409.649597,316.597046 410.464722,316.697845 
	C411.904663,316.875977 413.720367,316.086334 414.974426,315.156464 
	C416.441132,314.068848 417.475250,312.397949 417.796844,312.024750 
	C421.094666,313.236877 423.258331,314.323364 425.535278,314.673645 
	C426.138916,314.766510 427.119446,311.600739 427.878357,311.622559 
	C433.350769,311.779785 433.811615,307.619781 435.339783,304.040619 
	C435.669525,303.268341 438.588470,302.646149 439.447906,303.230255 
	C442.303223,305.170898 441.037201,309.273285 438.157898,311.136932 
	C435.980347,312.546326 433.925201,315.108795 433.210205,317.564209 
	C432.360474,320.482452 433.003693,323.835419 432.624969,327.077637 
	C431.199005,332.422180 428.065674,334.558319 422.668091,334.253906 
	C421.588623,334.193024 420.015930,336.450745 419.397552,337.940979 
	C419.164459,338.502747 420.843781,340.557068 421.913269,340.806122 
	C423.792328,341.243683 425.885406,340.644623 427.866608,340.787537 
	C431.146698,341.024170 434.503754,341.203369 437.589081,342.170349 
	C438.124207,342.338043 437.297302,346.284973 437.441711,348.463654 
	C437.539062,349.932861 437.785645,351.962708 438.755188,352.692169 
	C441.250092,354.569305 441.529633,356.486511 441.235443,359.515411 
	C440.754211,364.469818 439.200409,368.667908 435.775421,372.171326 
	C435.056305,372.906982 433.827667,373.815369 433.055237,373.644287 
	C432.240326,373.463745 431.464081,372.180298 431.065857,371.215637 
	C429.714722,367.942871 429.358673,362.828247 427.069580,361.767090 
	C424.670624,360.654999 420.480194,363.405731 417.073486,364.470612 
	C416.439026,364.668915 415.636108,364.700500 415.206268,365.115204 
	C413.574829,366.688934 411.711975,368.196198 410.661743,370.123932 
	C410.156189,371.051880 411.268555,372.861267 411.648254,374.271515 
	C413.213196,373.849426 414.898315,373.652100 416.290710,372.907410 
	C416.955475,372.551880 416.836823,370.929779 417.478912,370.286652 
	C418.420044,369.344116 419.761475,368.143433 420.865692,368.207214 
	C421.961639,368.270538 423.295288,369.566315 423.967804,370.663055 
	C426.523926,374.831818 423.193024,376.436218 419.888397,377.961304 
	C420.546082,378.140503 421.203766,378.319702 421.861450,378.498901 
	C421.362854,381.222107 420.864258,383.945312 420.365662,386.668518 
	C418.330597,385.475739 416.295532,384.282959 413.627533,382.719177 
	C411.113556,385.485779 407.465179,385.476746 403.215424,381.276642 
	C401.548737,384.892578 400.180359,387.861359 398.631714,391.221161 
	C395.700897,388.407379 393.216736,385.268066 390.039307,383.187592 
	C386.964478,381.174255 383.453522,377.589996 378.645355,382.211914 
	C380.197327,383.209045 381.303833,384.109100 382.557709,384.692444 
	C387.641510,387.057617 388.003082,388.377808 385.429474,393.386169 
	C384.310455,395.563934 383.431580,398.000854 383.094421,400.411102 
	C382.648987,403.595123 381.484283,405.345581 378.033386,405.035675 
	C372.941254,404.578430 370.189331,406.713867 370.502197,412.083405 
	C370.529449,412.550629 370.505829,413.020782 370.505829,413.636505 
	C374.065857,415.452393 377.422424,416.084351 380.574585,412.967621 
	C383.317993,410.255005 386.030121,407.510193 388.806061,404.831360 
	C389.504791,404.157043 390.471924,403.109528 391.184753,403.205505 
	C396.327087,403.898102 400.118774,401.997131 402.924835,397.758484 
	C403.158051,397.406189 403.771118,397.253082 404.239532,397.116852 
	C408.679443,395.825684 413.092163,394.418732 417.580292,393.321655 
	C422.442841,392.133057 425.528168,394.885834 424.987183,399.656128 
	C424.486694,404.069244 418.376892,409.143768 413.993256,409.282684 
	C412.321747,409.335693 410.688324,410.590424 408.599762,411.484955 
	C418.232117,418.683594 418.232117,418.683594 427.416473,418.319794 
	C428.100403,423.353333 430.720306,424.648865 435.807068,423.294403 
	C437.821747,422.757965 440.580200,425.014893 443.000000,426.000000 
M216.158646,241.170151 
	C219.010086,243.944077 222.300598,246.403854 224.578751,249.587967 
	C226.518799,252.299545 228.323212,252.902618 230.608719,250.977371 
	C235.828171,246.580566 240.825623,241.920212 245.737122,237.524551 
	C225.059906,205.679901 179.704163,204.059753 155.857803,233.563812 
	C143.004196,249.467010 130.745346,265.883972 118.851196,282.521729 
	C101.617355,306.628662 105.328606,340.207092 126.678352,358.691742 
	C152.196304,380.785370 186.551910,376.203491 207.125412,348.032776 
	C213.697601,339.033661 220.468475,330.179779 227.131561,321.246887 
	C232.764740,313.694733 238.373489,306.124390 244.367752,298.057861 
	C242.545105,298.057861 241.353119,297.795532 240.328918,298.099152 
	C231.744080,300.644135 223.079102,301.351746 214.161942,300.191467 
	C212.599976,299.988220 210.226166,301.507843 209.133942,302.928680 
	C200.716843,313.878571 192.885605,325.295471 184.169296,335.994507 
	C173.092438,349.591034 154.011078,350.319672 141.921173,338.233276 
	C129.919495,326.235077 129.711044,308.646606 141.300980,293.378540 
	C152.164093,279.067993 163.015091,264.747345 173.753113,250.342941 
	C184.587097,235.809830 199.184311,232.407364 216.158646,241.170151 
M193.428635,281.151550 
	C218.595215,294.932831 248.085892,290.530914 265.864288,269.189819 
	C278.620758,253.877075 290.647430,237.875671 301.958557,221.463959 
	C311.821960,207.152817 312.906006,190.919678 306.647980,174.782654 
	C291.833618,136.582245 239.452759,128.474228 212.623627,160.288330 
	C201.159912,173.882034 190.591370,188.230820 179.637161,202.252975 
	C179.332230,202.643326 179.268478,203.222092 178.903244,204.239655 
	C189.053909,201.554550 198.623123,199.858719 208.544037,201.789581 
	C209.894623,202.052444 212.113815,200.443054 213.189240,199.104645 
	C219.749222,190.940338 225.870499,182.417160 232.564987,174.368759 
	C242.426239,162.513184 260.594421,160.594299 273.151520,169.710312 
	C285.745117,178.852814 289.842255,195.340530 280.954071,208.093658 
	C269.659271,224.299973 257.614349,240.104919 244.621704,254.972000 
	C231.921387,269.504578 205.873886,267.045593 196.591019,250.961884 
	C195.094711,248.369370 193.137390,248.183777 191.314209,249.824631 
	C186.102036,254.515640 181.134766,259.478760 174.999344,265.362793 
	C181.648422,271.126984 187.220749,275.957764 193.428635,281.151550 
M253.105408,345.499786 
	C253.105408,334.972931 253.105408,324.446075 253.105408,312.474731 
	C245.106400,323.073578 238.036270,332.412079 231.021744,341.792145 
	C230.461288,342.541595 229.983505,343.575775 229.976242,344.481689 
	C229.900787,353.888245 229.929794,363.295685 229.929794,372.696899 
	C238.071045,372.696899 245.626572,372.696899 253.109146,372.696899 
	C253.109146,363.766602 253.109146,355.133209 253.105408,345.499786 
z"/>
<path fill="#FEFFFE" opacity="1.000000" stroke="none" 
	d="
M443.296997,425.705994 
	C440.580200,425.014893 437.821747,422.757965 435.807068,423.294403 
	C430.720306,424.648865 428.100403,423.353333 427.416473,418.319794 
	C418.232117,418.683594 418.232117,418.683594 408.599762,411.484955 
	C410.688324,410.590424 412.321747,409.335693 413.993256,409.282684 
	C418.376892,409.143768 424.486694,404.069244 424.987183,399.656128 
	C425.528168,394.885834 422.442841,392.133057 417.580292,393.321655 
	C413.092163,394.418732 408.679443,395.825684 404.239532,397.116852 
	C403.771118,397.253082 403.158051,397.406189 402.924835,397.758484 
	C400.118774,401.997131 396.327087,403.898102 391.184753,403.205505 
	C390.471924,403.109528 389.504791,404.157043 388.806061,404.831360 
	C386.030121,407.510193 383.317993,410.255005 380.574585,412.967621 
	C377.422424,416.084351 374.065857,415.452393 370.505829,413.636505 
	C370.505829,413.020782 370.529449,412.550629 370.502197,412.083405 
	C370.189331,406.713867 372.941254,404.578430 378.033386,405.035675 
	C381.484283,405.345581 382.648987,403.595123 383.094421,400.411102 
	C383.431580,398.000854 384.310455,395.563934 385.429474,393.386169 
	C388.003082,388.377808 387.641510,387.057617 382.557709,384.692444 
	C381.303833,384.109100 380.197327,383.209045 378.645355,382.211914 
	C383.453522,377.589996 386.964478,381.174255 390.039307,383.187592 
	C393.216736,385.268066 395.700897,388.407379 398.631714,391.221161 
	C400.180359,387.861359 401.548737,384.892578 403.215424,381.276642 
	C407.465179,385.476746 411.113556,385.485779 413.627533,382.719177 
	C416.295532,384.282959 418.330597,385.475739 420.365662,386.668518 
	C420.864258,383.945312 421.362854,381.222107 421.861450,378.498901 
	C421.203766,378.319702 420.546082,378.140503 419.888397,377.961304 
	C423.193024,376.436218 426.523926,374.831818 423.967804,370.663055 
	C423.295288,369.566315 421.961639,368.270538 420.865692,368.207214 
	C419.761475,368.143433 418.420044,369.344116 417.478912,370.286652 
	C416.836823,370.929779 416.955475,372.551880 416.290710,372.907410 
	C414.898315,373.652100 413.213196,373.849426 411.648254,374.271515 
	C411.268555,372.861267 410.156189,371.051880 410.661743,370.123932 
	C411.711975,368.196198 413.574829,366.688934 415.206268,365.115204 
	C415.636108,364.700500 416.439026,364.668915 417.073486,364.470612 
	C420.480194,363.405731 424.670624,360.654999 427.069580,361.767090 
	C429.358673,362.828247 429.714722,367.942871 431.065857,371.215637 
	C431.464081,372.180298 432.240326,373.463745 433.055237,373.644287 
	C433.827667,373.815369 435.056305,372.906982 435.775421,372.171326 
	C439.200409,368.667908 440.754211,364.469818 441.235443,359.515411 
	C441.529633,356.486511 441.250092,354.569305 438.755188,352.692169 
	C437.785645,351.962708 437.539062,349.932861 437.441711,348.463654 
	C437.297302,346.284973 438.124207,342.338043 437.589081,342.170349 
	C434.503754,341.203369 431.146698,341.024170 427.866608,340.787537 
	C425.885406,340.644623 423.792328,341.243683 421.913269,340.806122 
	C420.843781,340.557068 419.164459,338.502747 419.397552,337.940979 
	C420.015930,336.450745 421.588623,334.193024 422.668091,334.253906 
	C428.065674,334.558319 431.199005,332.422180 432.624969,327.526947 
	C433.044708,330.212891 432.886871,332.553589 433.184235,334.834930 
	C433.575348,337.835327 435.953430,338.613739 438.330322,337.830292 
	C439.490631,337.447845 440.782928,335.523987 440.888489,334.207520 
	C441.450989,327.189575 441.134491,327.005371 433.000000,327.000000 
	C433.003693,323.835419 432.360474,320.482452 433.210205,317.564209 
	C433.925201,315.108795 435.980347,312.546326 438.157898,311.136932 
	C441.037201,309.273285 442.303223,305.170898 439.447906,303.230255 
	C438.588470,302.646149 435.669525,303.268341 435.339783,304.040619 
	C433.811615,307.619781 433.350769,311.779785 427.878357,311.622559 
	C427.119446,311.600739 426.138916,314.766510 425.535278,314.673645 
	C423.258331,314.323364 421.094666,313.236877 417.796844,312.024750 
	C417.475250,312.397949 416.441132,314.068848 414.974426,315.156464 
	C413.720367,316.086334 411.904663,316.875977 410.464722,316.697845 
	C409.649597,316.597046 409.008148,314.456909 408.457031,313.163452 
	C408.229675,312.629883 408.726746,311.653534 408.416443,311.309296 
	C402.805695,305.085022 407.809875,306.555817 411.500031,306.980469 
	C415.513733,307.442352 417.886017,305.890594 420.367371,302.315918 
	C422.798401,298.813843 426.133179,296.218506 424.980988,291.395447 
	C424.729553,290.342957 424.580719,289.009277 423.873749,288.371368 
	C421.911804,286.601105 419.680634,285.129303 416.788910,282.965759 
	C415.293213,285.548737 413.644348,288.396240 411.956970,291.310242 
	C408.219879,292.191345 404.128723,293.155914 399.629089,294.216797 
	C399.629089,295.346497 399.629089,296.886566 399.629089,298.808868 
	C395.278687,299.305237 391.078125,299.784515 386.225464,300.338165 
	C387.162323,297.235840 387.841217,294.987823 388.538391,292.679230 
	C392.168945,291.331818 395.953766,290.211060 399.433350,288.477631 
	C400.609375,287.891754 401.006470,285.751068 401.770203,284.326660 
	C403.104889,281.837402 404.447845,279.352570 406.559448,275.432587 
	C408.189423,280.779724 409.626923,283.363892 414.145081,280.415771 
	C415.367096,279.618408 418.351196,281.843170 420.597137,282.132904 
	C421.478577,282.246613 423.454346,280.300140 423.412384,280.232330 
	C420.581909,275.659393 423.483429,271.551788 424.392914,267.333374 
	C425.391449,262.701813 424.719879,261.733032 420.247162,262.865204 
	C417.381531,263.590607 414.809540,265.645477 411.940582,266.134552 
	C409.627563,266.528809 407.008789,265.638916 404.691437,264.838684 
	C404.409088,264.741150 404.948517,261.591461 405.490387,259.985596 
	C405.950378,258.622345 406.964111,257.445953 407.847504,255.999069 
	C405.879822,254.721802 404.014648,253.511047 401.863037,252.114380 
	C398.404205,257.382690 402.704987,261.917175 402.842285,266.678345 
	C402.895386,268.519714 402.798737,270.365356 402.770325,272.209076 
	C401.316986,271.903442 399.874695,271.519440 398.407410,271.312927 
	C396.740234,271.078217 395.319458,269.340912 393.340240,272.006470 
	C392.381470,273.297699 388.245117,272.229462 384.776520,271.364716 
	C386.784912,269.984436 388.793304,268.604187 390.801727,267.223907 
	C390.680725,266.964478 390.559723,266.705017 390.438721,266.445557 
	C389.775970,266.644135 389.124207,266.946960 388.448029,267.018188 
	C387.264954,267.142822 385.884064,267.490601 384.947754,267.022034 
	C384.435028,266.765411 384.181091,264.611298 384.664642,264.054199 
	C385.474609,263.121002 386.917419,262.617310 388.184540,262.227234 
	C390.377106,261.552307 393.191681,261.750549 394.752899,260.418945 
	C397.694458,257.910034 396.189758,254.600601 391.523438,252.361328 
	C394.809326,247.139618 412.557159,246.800446 419.120941,252.464600 
	C421.081848,249.668320 422.996826,246.937454 424.860901,244.279251 
	C420.123383,237.284576 420.206146,237.505478 412.223114,240.496338 
	C407.743622,242.174591 402.936737,242.979004 397.344604,244.416977 
	C393.609619,243.395706 388.512726,242.002060 383.415863,240.608398 
	C383.440582,240.223145 383.465302,239.837906 383.490051,239.452652 
	C384.815826,239.298859 386.163330,239.247513 387.463379,238.972229 
	C391.506744,238.115997 395.094666,237.019455 395.099243,231.610718 
	C395.102692,227.518250 397.410706,226.774307 401.639435,227.077850 
	C404.044312,227.250473 406.638092,225.387711 409.073578,224.280487 
	C410.247559,223.746796 411.693054,221.953461 412.266693,222.238358 
	C419.363098,225.762878 424.118866,218.721451 431.114807,218.748795 
	C430.115173,217.667969 429.654419,216.721619 429.157593,216.702316 
	C424.470123,216.520126 419.775696,216.530472 415.085022,216.414429 
	C411.825165,216.333786 408.542175,215.811035 405.314606,216.062912 
	C396.144165,216.778625 387.027374,213.027863 377.856445,215.818192 
	C377.708832,215.863113 377.436249,215.866531 377.377808,215.781815 
	C375.034637,212.384903 372.375458,209.135239 370.616455,205.455734 
	C370.175720,204.533829 372.542755,202.152176 373.784119,200.570740 
	C375.723480,198.100052 377.772461,195.712875 379.832062,193.339813 
	C382.140625,190.679886 384.513824,188.076126 386.855469,185.444901 
	C387.184845,185.074829 387.787140,184.673645 387.769867,184.310272 
	C387.515656,178.954239 392.971558,176.874817 394.591797,172.509140 
	C395.060913,171.245041 397.760223,170.788498 399.458374,170.007858 
	C400.560211,169.501343 401.700500,169.078339 402.823547,168.617920 
	C402.365540,167.646927 401.995087,166.622040 401.435669,165.713486 
	C397.184967,158.810059 390.346527,158.796432 383.405609,158.910278 
	C374.831451,159.050903 366.254120,159.003510 357.680389,159.159317 
	C355.554840,159.197937 353.429565,160.003189 351.318481,159.944199 
	C344.817291,159.762558 338.308319,158.932846 331.832306,159.170410 
	C328.638550,159.287582 325.510651,161.198532 321.924744,162.683731 
	C321.328888,163.014999 321.161163,162.960342 320.841125,162.630447 
	C319.820679,162.615891 318.952576,162.876572 318.073181,163.106827 
	C318.061859,163.076385 318.117523,163.109970 318.117523,163.109985 
	C317.254669,163.743607 315.800812,164.246155 315.626434,165.032471 
	C314.618530,169.577225 311.942719,169.230530 308.460938,168.107559 
	C304.345734,166.780304 306.206329,164.082169 306.639801,161.686249 
	C307.430389,157.316498 305.812317,155.706512 301.234924,154.881348 
	C298.027466,154.303162 295.017914,152.627335 292.393677,151.622986 
	C294.323120,148.127396 295.709351,145.615982 297.703186,142.003754 
	C298.894928,142.003754 301.328125,142.036377 303.760193,141.998291 
	C316.645538,141.796570 329.530304,141.492447 342.416077,141.444397 
	C344.643982,141.436081 346.849579,142.657333 349.112427,143.006027 
	C352.021393,143.454254 355.413147,144.641495 357.819183,143.640671 
	C362.240234,141.801666 366.165527,143.011978 370.338959,143.575851 
	C371.746246,143.765991 373.229767,143.297485 374.680664,143.274857 
	C383.658661,143.134796 392.639191,143.116196 401.615204,142.902420 
	C411.890411,142.657715 422.171478,142.414490 432.428223,141.804459 
	C435.075684,141.647003 437.641602,140.117661 441.560089,138.764282 
	C440.539215,135.800873 439.443542,132.620316 438.222626,129.076141 
	C443.036102,124.870529 443.729797,119.811447 439.363098,111.822334 
	C435.609192,114.028778 431.878021,116.221863 427.905151,118.557014 
	C425.869690,109.453423 427.023041,108.066025 436.374969,109.443382 
	C439.876221,109.959061 440.746490,108.627403 440.931976,106.138741 
	C441.444153,99.267540 441.653320,92.374023 442.007965,85.490646 
	C442.092651,83.847038 442.277313,82.208595 442.708008,80.283890 
	C443.333344,81.561043 443.950287,83.120964 443.956512,84.683311 
	C444.025574,102.008652 444.073090,119.335037 443.912292,136.659164 
	C443.890961,138.956818 442.537048,141.214508 442.065948,143.544418 
	C441.695068,145.378693 441.733459,147.295715 441.474487,150.691833 
	C438.499847,149.690536 435.871185,148.653244 433.157013,147.942154 
	C431.127106,147.410339 428.993835,147.123596 426.894379,147.042191 
	C423.820831,146.923019 420.729187,146.982315 417.661316,147.195938 
	C416.839203,147.253189 415.843506,147.995163 415.373474,148.714264 
	C415.100677,149.131653 415.587524,150.200302 415.951050,150.854462 
	C418.882904,156.130295 423.690186,158.575851 429.601715,159.825302 
	C430.723938,157.847000 431.813568,155.926117 432.931702,153.955017 
	C441.857635,160.990417 442.653595,170.856781 434.059418,177.414566 
	C433.166565,173.229828 432.752350,169.352463 431.419678,165.821762 
	C430.704376,163.926788 428.605621,161.657700 426.782623,161.291214 
	C424.172150,160.766449 424.784210,163.298447 424.392639,165.336868 
	C423.450714,170.240524 421.430084,174.943619 419.756561,179.696640 
	C419.148773,181.422745 418.290955,183.060837 417.336700,185.214172 
	C421.827057,185.214172 425.349152,184.979614 428.807373,185.346970 
	C429.949921,185.468338 431.943451,187.354843 431.794342,188.067276 
	C431.303558,190.412354 436.799194,192.681168 431.731934,195.001495 
	C428.008789,196.706375 424.514893,198.927734 420.977814,201.018661 
	C417.451935,203.102921 416.861359,206.187042 420.207336,208.285522 
	C423.691010,210.470352 427.870178,211.606537 431.836121,212.928650 
	C433.185516,213.378479 434.811066,212.990433 436.310333,213.001678 
	C442.580475,213.048767 443.990997,214.389587 443.992157,220.570068 
	C444.004669,287.540222 444.002319,354.510376 443.983063,421.480530 
	C443.982697,422.791046 443.729370,424.101501 443.296997,425.705994 
M440.893127,246.518051 
	C438.555420,243.800278 436.190979,244.938065 436.256226,247.649704 
	C436.401764,253.698227 433.552460,254.715591 427.090881,252.778976 
	C432.260071,257.493347 431.186462,260.642456 425.722351,264.593048 
	C427.346191,266.312958 429.418518,267.364227 431.361969,268.615662 
	C432.959259,269.644226 434.403412,270.910522 435.915466,272.071442 
	C434.226196,273.146484 432.529236,274.209839 430.855865,275.309082 
	C430.601746,275.475983 430.457062,275.809509 430.142029,276.223206 
	C431.012909,278.681641 431.917023,281.233887 433.067841,284.482635 
	C435.291962,283.853821 438.634735,283.875336 439.282227,282.564972 
	C442.836578,275.372253 441.443970,269.053589 433.511780,264.527710 
	C435.615875,263.576416 437.353271,263.671936 438.228821,262.849731 
	C439.381226,261.767517 440.891907,259.159973 440.456482,258.598907 
	C437.296906,254.527283 438.821045,250.952042 440.893127,246.518051 
M430.049866,417.512634 
	C432.331818,420.547882 436.030426,421.192078 438.397217,419.327026 
	C440.286713,417.838135 440.481934,414.084564 441.195801,411.276855 
	C441.466492,410.212341 441.305969,408.905670 440.943176,407.845886 
	C440.481445,406.497192 439.826477,404.417389 438.881409,404.187378 
	C436.468597,403.600220 433.255798,402.905823 431.454376,404.019531 
	C428.934448,405.577515 427.404938,408.737457 425.593506,411.032349 
	C426.905579,412.975647 428.238556,414.949890 430.049866,417.512634 
M387.619934,195.116272 
	C391.380737,197.697571 395.647308,197.444702 395.696136,194.466156 
	C395.797302,188.293686 398.857819,188.591095 403.142029,189.901245 
	C403.888062,190.129379 404.888794,189.524582 405.754364,189.308853 
	C404.763519,184.324341 397.936279,180.401855 393.896729,182.266037 
	C393.220642,182.578033 392.305420,183.357132 392.286896,183.945206 
	C392.183594,187.219391 390.061371,187.883743 387.419434,188.438400 
	C386.167023,188.701355 385.106720,189.879395 383.662506,190.840439 
	C385.113953,192.427872 386.103546,193.510178 387.619934,195.116272 
M425.060089,388.701477 
	C427.080963,393.599030 432.658295,395.760834 435.885956,392.171082 
	C438.608063,389.143524 440.024628,384.830566 441.516815,380.896057 
	C441.843719,380.034088 440.143188,377.371948 439.201324,377.277069 
	C437.307098,377.086365 433.716064,377.836121 433.584198,378.646698 
	C432.753876,383.750366 428.350220,385.224518 425.060089,388.701477 
M412.219940,161.967331 
	C412.941742,160.994812 414.498962,159.615860 414.254517,159.113403 
	C412.101532,154.687866 409.478577,150.129715 404.191040,149.457321 
	C401.453979,149.109268 397.197449,145.161331 394.932922,151.927567 
	C396.935150,152.121475 398.610199,152.623459 400.158417,152.365097 
	C403.719849,151.770813 405.537354,152.431686 406.264587,156.567093 
	C406.624725,158.614868 409.641266,160.195480 412.219940,161.967331 
M414.578033,205.212189 
	C415.137909,204.377716 415.813080,203.587112 416.161224,202.672073 
	C416.231506,202.487320 415.028839,201.417969 414.472382,201.464600 
	C412.120789,201.661652 409.791656,202.126251 406.917419,202.577271 
	C408.960480,205.464569 410.365326,208.164551 414.578033,205.212189 
M384.331360,203.213043 
	C385.498932,203.213043 386.666473,203.213043 387.834045,203.213043 
	C387.817841,202.708115 387.801666,202.203186 387.785492,201.698257 
	C386.599762,201.302353 385.338531,201.049149 384.248688,200.472168 
	C383.055542,199.840485 382.020721,198.909729 380.916901,198.109314 
	C380.495972,198.543884 380.075012,198.978439 379.654083,199.412994 
	C380.970184,200.616501 382.286316,201.820007 384.331360,203.213043 
M390.586884,398.075897 
	C391.493500,398.964142 392.400085,399.852417 393.306702,400.740662 
	C393.742920,399.648163 394.179108,398.555664 394.615295,397.463135 
	C393.418945,397.482391 392.222565,397.501648 390.586884,398.075897 
M434.719208,293.928223 
	C433.541962,294.389343 432.364685,294.850494 431.187408,295.311615 
	C431.821381,295.860809 432.455383,296.410034 433.089325,296.959198 
	C433.835907,296.083130 434.582489,295.207092 434.719208,293.928223 
M427.632324,286.639191 
	C427.769348,285.530212 427.906372,284.421204 428.043396,283.312225 
	C426.764679,283.644775 425.485931,283.977325 424.207214,284.309875 
	C424.258331,284.676605 424.309448,285.043304 424.360565,285.410034 
	C425.227112,285.755981 426.093658,286.101929 427.632324,286.639191 
M336.816803,152.814590 
	C335.613342,152.191513 334.409882,151.568451 333.206421,150.945389 
	C332.983673,151.481628 332.760925,152.017883 332.538177,152.554138 
	C333.722412,152.689011 334.906647,152.823883 336.816803,152.814590 
M403.872803,176.288147 
	C404.022522,177.129440 404.172272,177.970749 404.321991,178.812042 
	C405.072754,178.345718 405.823547,177.879379 406.574310,177.413055 
	C405.901611,176.971664 405.228882,176.530289 403.872803,176.288147 
M402.184479,232.337128 
	C401.520477,232.749557 400.856445,233.161987 400.192444,233.574432 
	C400.595581,233.984894 400.998749,234.395355 401.401947,234.805817 
	C401.825195,234.148712 402.248444,233.491592 402.184479,232.337128 
M404.787811,389.816803 
	C404.250732,390.204346 403.713654,390.591888 403.176544,390.979401 
	C403.858978,391.495178 404.541412,392.010956 405.223846,392.526764 
	C405.188782,391.805634 405.153748,391.084503 404.787811,389.816803 
M374.324982,149.356796 
	C374.052704,150.038330 373.780426,150.719864 373.508148,151.401398 
	C374.079254,151.470688 374.650330,151.539978 375.221436,151.609283 
	C375.119690,150.948395 375.017975,150.287491 374.324982,149.356796 
M380.703369,150.568634 
	C380.989258,150.295792 381.275116,150.022934 381.561005,149.750107 
	C381.447845,149.631790 381.242584,149.404388 381.234894,149.410889 
	C380.933350,149.665573 380.649841,149.941544 380.703369,150.568634 
M325.609222,150.797577 
	C325.214447,150.793396 324.819702,150.789215 324.424927,150.785019 
	C324.423401,150.948837 324.410919,151.254990 324.421997,151.255859 
	C324.814819,151.286148 325.209839,151.287842 325.609222,150.797577 
z"/>
<path fill="#FCFDFC" opacity="1.000000" stroke="none" 
	d="
M170.779709,193.136032 
	C171.323227,193.516449 171.730774,193.937408 171.681915,193.999573 
	C169.552338,196.708557 167.382370,199.385757 164.288300,203.217148 
	C163.210144,199.203018 162.500412,196.560608 161.546539,193.009216 
	C165.104034,193.009216 167.767441,193.009216 170.779709,193.136032 
z"/>
<path fill="#FCFDFC" opacity="1.000000" stroke="none" 
	d="
M200.939270,148.046677 
	C201.617294,149.564453 202.659027,151.679626 202.043427,152.423737 
	C200.592392,154.177750 198.351395,155.278229 195.915787,156.027542 
	C195.927399,152.127167 195.956329,148.596115 200.939270,148.046677 
z"/>
<path fill="#040404" opacity="1.000000" stroke="none" 
	d="
M320.993469,162.905685 
	C321.161163,162.960342 321.328888,163.014999 321.747681,162.986237 
	C346.810577,162.902832 371.622375,162.902832 397.673615,162.902832 
	C368.698975,200.819138 340.317352,237.959366 311.907928,275.136017 
	C343.391998,307.558075 374.672150,339.770172 406.669464,372.720795 
	C404.232635,372.840118 402.838196,372.966949 401.443634,372.968048 
	C373.951935,372.989960 346.460083,373.035309 318.968842,372.926788 
	C317.014801,372.919067 314.478088,372.339417 313.201599,371.047913 
	C293.662415,351.278900 274.287903,331.347076 254.371658,310.937347 
	C258.221008,305.806610 262.862823,299.619629 267.833496,292.994293 
	C277.619354,302.569214 287.201202,311.963074 296.804321,321.335144 
	C305.500122,329.821716 314.142395,338.366272 323.002319,346.678436 
	C324.503693,348.087006 326.957642,349.094086 329.018311,349.181335 
	C336.153320,349.483551 343.309021,349.297882 351.617889,349.297882 
	C327.482819,324.702728 303.928680,300.699585 280.102417,276.419098 
	C303.724182,245.600708 327.329254,214.804047 351.514221,183.250824 
	C348.020630,183.250824 345.440826,183.250824 341.985107,183.243835 
	C337.742554,183.310669 334.375916,183.384506 330.589600,183.352676 
	C326.137054,183.866699 323.562073,182.667984 323.506989,178.083725 
	C323.497833,177.323074 322.960815,176.568741 322.677094,175.562744 
	C322.686432,175.314011 322.298004,175.002640 322.298004,175.002640 
	C320.906586,171.277939 319.515167,167.553223 318.120636,163.469238 
	C318.117523,163.109970 318.061859,163.076385 318.439789,163.096298 
	C319.542969,163.046036 320.268219,162.975861 320.993469,162.905685 
z"/>
<path fill="#030403" opacity="1.000000" stroke="none" 
	d="
M215.835693,240.987259 
	C199.184311,232.407364 184.587097,235.809830 173.753113,250.342941 
	C163.015091,264.747345 152.164093,279.067993 141.300980,293.378540 
	C129.711044,308.646606 129.919495,326.235077 141.921173,338.233276 
	C154.011078,350.319672 173.092438,349.591034 184.169296,335.994507 
	C192.885605,325.295471 200.716843,313.878571 209.133942,302.928680 
	C210.226166,301.507843 212.599976,299.988220 214.161942,300.191467 
	C223.079102,301.351746 231.744080,300.644135 240.328918,298.099152 
	C241.353119,297.795532 242.545105,298.057861 244.367752,298.057861 
	C238.373489,306.124390 232.764740,313.694733 227.131561,321.246887 
	C220.468475,330.179779 213.697601,339.033661 207.125412,348.032776 
	C186.551910,376.203491 152.196304,380.785370 126.678352,358.691742 
	C105.328606,340.207092 101.617355,306.628662 118.851196,282.521729 
	C130.745346,265.883972 143.004196,249.467010 155.857803,233.563812 
	C179.704163,204.059753 225.059906,205.679901 245.737122,237.524551 
	C240.825623,241.920212 235.828171,246.580566 230.608719,250.977371 
	C228.323212,252.902618 226.518799,252.299545 224.578751,249.587967 
	C222.300598,246.403854 219.010086,243.944077 215.835693,240.987259 
z"/>
<path fill="#030403" opacity="1.000000" stroke="none" 
	d="
M193.110870,280.970032 
	C187.220749,275.957764 181.648422,271.126984 174.999344,265.362793 
	C181.134766,259.478760 186.102036,254.515640 191.314209,249.824631 
	C193.137390,248.183777 195.094711,248.369370 196.591019,250.961884 
	C205.873886,267.045593 231.921387,269.504578 244.621704,254.972000 
	C257.614349,240.104919 269.659271,224.299973 280.954071,208.093658 
	C289.842255,195.340530 285.745117,178.852814 273.151520,169.710312 
	C260.594421,160.594299 242.426239,162.513184 232.564987,174.368759 
	C225.870499,182.417160 219.749222,190.940338 213.189240,199.104645 
	C212.113815,200.443054 209.894623,202.052444 208.544037,201.789581 
	C198.623123,199.858719 189.053909,201.554550 178.903244,204.239655 
	C179.268478,203.222092 179.332230,202.643326 179.637161,202.252975 
	C190.591370,188.230820 201.159912,173.882034 212.623627,160.288330 
	C239.452759,128.474228 291.833618,136.582245 306.647980,174.782654 
	C312.906006,190.919678 311.821960,207.152817 301.958557,221.463959 
	C290.647430,237.875671 278.620758,253.877075 265.864288,269.189819 
	C248.085892,290.530914 218.595215,294.932831 193.110870,280.970032 
z"/>
<path fill="#020302" opacity="1.000000" stroke="none" 
	d="
M253.107269,345.999817 
	C253.109146,355.133209 253.109146,363.766602 253.109146,372.696899 
	C245.626572,372.696899 238.071045,372.696899 229.929794,372.696899 
	C229.929794,363.295685 229.900787,353.888245 229.976242,344.481689 
	C229.983505,343.575775 230.461288,342.541595 231.021744,341.792145 
	C238.036270,332.412079 245.106400,323.073578 253.105408,312.474731 
	C253.105408,324.446075 253.105408,334.972931 253.107269,345.999817 
z"/>
<path fill="#FFFFFE" opacity="1.000000" stroke="none" 
	d="
M321.926697,174.977722 
	C322.298004,175.002640 322.686432,175.314011 322.297058,175.731415 
	C319.019928,180.766617 319.108398,183.968353 322.462616,185.906021 
	C326.009247,187.954849 329.037445,187.335480 331.009308,183.458344 
	C334.375916,183.384506 337.742554,183.310669 341.556549,183.346252 
	C342.363831,184.509521 342.548340,185.671448 343.118134,186.595963 
	C344.546844,188.914322 343.831757,190.010162 341.444916,191.040649 
	C339.641113,191.819382 338.175262,193.380890 335.935120,194.739227 
	C335.031677,193.128952 334.752167,191.373444 334.467407,189.618652 
	C326.588348,187.999725 323.620209,189.061569 321.630280,195.380844 
	C320.999054,197.385406 321.892761,200.608032 323.272247,202.318863 
	C324.950989,204.400848 327.719788,204.788101 330.247070,202.393051 
	C331.480042,201.224640 333.394196,200.774994 335.000000,200.000000 
	C332.816772,204.829086 332.816772,204.829086 319.887451,209.070099 
	C320.508698,210.236008 321.491028,211.295670 321.583191,212.427780 
	C321.739349,214.346039 321.978607,216.736572 321.032379,218.167953 
	C318.923462,221.358032 315.912476,220.614395 311.190704,216.006577 
	C308.843719,213.716263 307.302368,210.820755 310.883240,208.625671 
	C315.039978,206.077560 315.257111,202.501389 315.031036,198.390381 
	C314.844788,195.003494 315.094574,191.590561 314.857849,188.209702 
	C314.775269,187.029800 314.078064,185.631699 313.208160,184.817978 
	C310.768066,182.535538 310.511047,180.161194 311.867065,177.209763 
	C314.379120,171.742249 315.023224,171.537018 321.926697,174.977722 
z"/>
<path fill="#FFFFFE" opacity="1.000000" stroke="none" 
	d="
M335.147034,199.661499 
	C333.394196,200.774994 331.480042,201.224640 330.247070,202.393051 
	C327.719788,204.788101 324.950989,204.400848 323.272247,202.318863 
	C321.892761,200.608032 320.999054,197.385406 321.630280,195.380844 
	C323.620209,189.061569 326.588348,187.999725 334.467407,189.618652 
	C334.752167,191.373444 335.031677,193.128952 335.655579,194.942230 
	C335.764709,196.441010 335.529388,197.882004 335.147034,199.661499 
z"/>
<path fill="#FCFDFC" opacity="1.000000" stroke="none" 
	d="
M440.917053,246.898499 
	C438.821045,250.952042 437.296906,254.527283 440.456482,258.598907 
	C440.891907,259.159973 439.381226,261.767517 438.228821,262.849731 
	C437.353271,263.671936 435.615875,263.576416 433.511780,264.527710 
	C441.443970,269.053589 442.836578,275.372253 439.282227,282.564972 
	C438.634735,283.875336 435.291962,283.853821 433.067841,284.482635 
	C431.917023,281.233887 431.012909,278.681641 430.142029,276.223206 
	C430.457062,275.809509 430.601746,275.475983 430.855865,275.309082 
	C432.529236,274.209839 434.226196,273.146484 435.915466,272.071442 
	C434.403412,270.910522 432.959259,269.644226 431.361969,268.615662 
	C429.418518,267.364227 427.346191,266.312958 425.722351,264.593048 
	C431.186462,260.642456 432.260071,257.493347 427.090881,252.778976 
	C433.552460,254.715591 436.401764,253.698227 436.256226,247.649704 
	C436.190979,244.938065 438.555420,243.800278 440.917053,246.898499 
z"/>
<path fill="#FCFDFC" opacity="1.000000" stroke="none" 
	d="
M429.810699,417.218384 
	C428.238556,414.949890 426.905579,412.975647 425.593506,411.032349 
	C427.404938,408.737457 428.934448,405.577515 431.454376,404.019531 
	C433.255798,402.905823 436.468597,403.600220 438.881409,404.187378 
	C439.826477,404.417389 440.481445,406.497192 440.943176,407.845886 
	C441.305969,408.905670 441.466492,410.212341 441.195801,411.276855 
	C440.481934,414.084564 440.286713,417.838135 438.397217,419.327026 
	C436.030426,421.192078 432.331818,420.547882 429.810699,417.218384 
z"/>
<path fill="#FFFFFF" opacity="1.000000" stroke="none" 
	d="
M387.356537,194.854370 
	C386.103546,193.510178 385.113953,192.427872 383.662506,190.840439 
	C385.106720,189.879395 386.167023,188.701355 387.419434,188.438400 
	C390.061371,187.883743 392.183594,187.219391 392.286896,183.945206 
	C392.305420,183.357132 393.220642,182.578033 393.896729,182.266037 
	C397.936279,180.401855 404.763519,184.324341 405.754364,189.308853 
	C404.888794,189.524582 403.888062,190.129379 403.142029,189.901245 
	C398.857819,188.591095 395.797302,188.293686 395.696136,194.466156 
	C395.647308,197.444702 391.380737,197.697571 387.356537,194.854370 
z"/>
<path fill="#FCFDFC" opacity="1.000000" stroke="none" 
	d="
M425.135742,388.336182 
	C428.350220,385.224518 432.753876,383.750366 433.584198,378.646698 
	C433.716064,377.836121 437.307098,377.086365 439.201324,377.277069 
	C440.143188,377.371948 441.843719,380.034088 441.516815,380.896057 
	C440.024628,384.830566 438.608063,389.143524 435.885956,392.171082 
	C432.658295,395.760834 427.080963,393.599030 425.135742,388.336182 
z"/>
<path fill="#FFFFFF" opacity="1.000000" stroke="none" 
	d="
M411.837952,161.977386 
	C409.641266,160.195480 406.624725,158.614868 406.264587,156.567093 
	C405.537354,152.431686 403.719849,151.770813 400.158417,152.365097 
	C398.610199,152.623459 396.935150,152.121475 394.932922,151.927567 
	C397.197449,145.161331 401.453979,149.109268 404.191040,149.457321 
	C409.478577,150.129715 412.101532,154.687866 414.254517,159.113403 
	C414.498962,159.615860 412.941742,160.994812 411.837952,161.977386 
z"/>
<path fill="#FCFDFC" opacity="1.000000" stroke="none" 
	d="
M433.000000,327.449310 
	C441.134491,327.005371 441.450989,327.189575 440.888489,334.207520 
	C440.782928,335.523987 439.490631,337.447845 438.330322,337.830292 
	C435.953430,338.613739 433.575348,337.835327 433.184235,334.834930 
	C432.886871,332.553589 433.044708,330.212891 433.000000,327.449310 
z"/>
<path fill="#FFFFFF" opacity="1.000000" stroke="none" 
	d="
M414.292725,205.398621 
	C410.365326,208.164551 408.960480,205.464569 406.917419,202.577271 
	C409.791656,202.126251 412.120789,201.661652 414.472382,201.464600 
	C415.028839,201.417969 416.231506,202.487320 416.161224,202.672073 
	C415.813080,203.587112 415.137909,204.377716 414.292725,205.398621 
z"/>
<path fill="#FFFFFF" opacity="1.000000" stroke="none" 
	d="
M383.966919,203.118286 
	C382.286316,201.820007 380.970184,200.616501 379.654083,199.412994 
	C380.075012,198.978439 380.495972,198.543884 380.916901,198.109314 
	C382.020721,198.909729 383.055542,199.840485 384.248688,200.472168 
	C385.338531,201.049149 386.599762,201.302353 387.785492,201.698257 
	C387.801666,202.203186 387.817841,202.708115 387.834045,203.213043 
	C386.666473,203.213043 385.498932,203.213043 383.966919,203.118286 
z"/>
<path fill="#FCFDFC" opacity="1.000000" stroke="none" 
	d="
M390.806549,397.798401 
	C392.222565,397.501648 393.418945,397.482391 394.615295,397.463135 
	C394.179108,398.555664 393.742920,399.648163 393.306702,400.740662 
	C392.400085,399.852417 391.493500,398.964142 390.806549,397.798401 
z"/>
<path fill="#FCFDFC" opacity="1.000000" stroke="none" 
	d="
M435.024139,294.129639 
	C434.582489,295.207092 433.835907,296.083130 433.089355,296.959229 
	C432.455383,296.410034 431.821381,295.860809 431.187408,295.311646 
	C432.364685,294.850494 433.541962,294.389343 435.024139,294.129639 
z"/>
<path fill="#FCFDFC" opacity="1.000000" stroke="none" 
	d="
M427.296265,286.543518 
	C426.093658,286.101929 425.227112,285.755981 424.360565,285.410034 
	C424.309448,285.043304 424.258331,284.676605 424.207214,284.309875 
	C425.485931,283.977325 426.764679,283.644775 428.043396,283.312225 
	C427.906372,284.421204 427.769348,285.530212 427.296265,286.543518 
z"/>
<path fill="#FFFFFF" opacity="1.000000" stroke="none" 
	d="
M336.453857,152.886688 
	C334.906647,152.823883 333.722412,152.689011 332.538177,152.554138 
	C332.760925,152.017883 332.983673,151.481628 333.206421,150.945389 
	C334.409882,151.568451 335.613342,152.191513 336.453857,152.886688 
z"/>
<path fill="#FFFFFF" opacity="1.000000" stroke="none" 
	d="
M404.214478,176.188538 
	C405.228882,176.530289 405.901611,176.971664 406.574310,177.413055 
	C405.823547,177.879379 405.072754,178.345718 404.321991,178.812042 
	C404.172272,177.970749 404.022522,177.129440 404.214478,176.188538 
z"/>
<path fill="#FCFDFC" opacity="1.000000" stroke="none" 
	d="
M402.428101,232.585815 
	C402.248444,233.491592 401.825195,234.148712 401.401917,234.805817 
	C400.998749,234.395355 400.595581,233.984894 400.192444,233.574432 
	C400.856445,233.161987 401.520477,232.749557 402.428101,232.585815 
z"/>
<path fill="#FCFDFC" opacity="1.000000" stroke="none" 
	d="
M404.953247,390.090088 
	C405.153748,391.084503 405.188782,391.805634 405.223846,392.526764 
	C404.541412,392.010956 403.858978,391.495178 403.176544,390.979431 
	C403.713654,390.591888 404.250732,390.204346 404.953247,390.090088 
z"/>
<path fill="#FFFFFF" opacity="1.000000" stroke="none" 
	d="
M374.620605,149.491699 
	C375.017975,150.287491 375.119690,150.948395 375.221436,151.609283 
	C374.650330,151.539978 374.079254,151.470688 373.508179,151.401398 
	C373.780426,150.719864 374.052704,150.038330 374.620605,149.491699 
z"/>
<path fill="#FCFDFC" opacity="1.000000" stroke="none" 
	d="
M320.841125,162.630447 
	C320.268219,162.975861 319.542969,163.046036 318.451111,163.126740 
	C318.952576,162.876572 319.820679,162.615891 320.841125,162.630447 
z"/>
<path fill="#FFFFFF" opacity="1.000000" stroke="none" 
	d="
M380.533661,150.391693 
	C380.649841,149.941544 380.933350,149.665573 381.234894,149.410889 
	C381.242584,149.404388 381.447845,149.631790 381.561005,149.750092 
	C381.275116,150.022934 380.989258,150.295792 380.533661,150.391693 
z"/>
<path fill="#FFFFFF" opacity="1.000000" stroke="none" 
	d="
M325.606873,151.045563 
	C325.209839,151.287842 324.814819,151.286148 324.421997,151.255859 
	C324.410919,151.254990 324.423401,150.948837 324.424927,150.785019 
	C324.819702,150.789215 325.214447,150.793396 325.606873,151.045563 
z"/>
<path fill="#FCFDFC" opacity="1.000000" stroke="none" 
	d="
M330.589600,183.352676 
	C329.037445,187.335480 326.009247,187.954849 322.462616,185.906021 
	C319.108398,183.968353 319.019928,180.766617 322.287720,175.980133 
	C322.960815,176.568741 323.497833,177.323074 323.506989,178.083725 
	C323.562073,182.667984 326.137054,183.866699 330.589600,183.352676 
z"/>
</svg>